<?xml version="1.0" standalone="no"?>
<!DOCTYPE svg PUBLIC "-//W3C//DTD SVG 20010904//EN"
 "http://www.w3.org/TR/2001/REC-SVG-20010904/DTD/svg10.dtd">
<svg version="1.0" xmlns="http://www.w3.org/2000/svg"
 width="372.000000pt" height="475.000000pt" viewBox="0 0 372.000000 475.000000"
 preserveAspectRatio="xMidYMid meet">

<g transform="translate(0.000000,475.000000) scale(0.100000,-0.100000)"
fill="#000000" stroke="none">
<path d="M480 4133 c-19 -2 -63 -10 -96 -19 -55 -14 -62 -19 -67 -44 -12 -56
-20 -260 -11 -260 5 0 25 11 44 23 65 44 257 147 273 147 9 0 26 -13 39 -30
12 -16 29 -30 37 -30 9 0 27 -6 41 -13 14 -7 43 -11 66 -9 29 3 46 -1 58 -14
18 -18 18 -31 0 -122 l-7 -33 78 50 c43 28 82 51 87 51 4 0 28 -18 51 -39 23
-22 55 -43 71 -47 15 -3 32 -17 38 -30 9 -19 14 -21 31 -13 10 6 32 9 48 7 22
-3 33 1 44 18 8 12 23 25 34 29 21 6 91 -18 91 -32 0 -4 -31 -22 -68 -40 -243
-114 -314 -404 -151 -619 51 -68 57 -82 37 -102 -16 -16 -3 -15 22 0 16 10 26
10 52 -1 114 -47 143 -53 228 -49 66 3 98 11 142 32 205 98 291 330 202 544
-4 7 2 12 15 12 11 0 25 9 31 20 13 24 8 25 -29 5 -28 -14 -29 -14 -55 25 -25
38 -119 120 -137 120 -27 0 0 20 68 49 85 36 115 33 133 -14 6 -15 17 -25 29
-25 26 0 51 -26 57 -59 3 -15 18 -34 35 -43 41 -24 46 -45 22 -88 l-20 -37 22
-19 c12 -11 24 -25 26 -32 3 -8 34 0 98 27 107 44 126 43 153 -10 22 -43 23
-87 1 -111 -15 -17 -13 -18 48 -18 56 0 114 -12 171 -35 11 -4 20 0 27 13 10
18 4 24 -56 57 -37 20 -120 79 -184 131 -240 191 -444 325 -594 388 -103 43
-119 45 -112 14 3 -13 9 -54 13 -92 6 -64 5 -69 -11 -62 -10 4 -45 9 -77 13
-64 6 -62 3 -72 95 -4 36 -1 51 14 71 l20 25 -37 6 c-21 3 -65 8 -98 11 -209
21 -265 34 -502 121 -151 56 -313 97 -362 92 -9 0 -32 -3 -51 -5z m1028 -490
c13 -25 4 -43 -19 -43 -25 0 -35 25 -19 45 16 20 27 19 38 -2z m127 -57 c0
-42 -29 -57 -56 -30 -29 29 -11 67 29 62 22 -2 27 -8 27 -32z m-223 -3 c23
-21 23 -36 -2 -58 -18 -17 -21 -17 -45 -1 -29 19 -30 24 -9 54 18 26 31 28 56
5z m378 -68 c0 -31 -26 -43 -47 -22 -21 21 -9 47 22 47 20 0 25 -5 25 -25z
m-142 -63 c4 -28 -24 -40 -45 -19 -21 21 -9 49 19 45 15 -2 24 -11 26 -26z
m-196 -9 c25 -22 23 -51 -6 -64 -28 -13 -66 3 -66 28 0 19 28 53 43 53 6 0 19
-7 29 -17z m-150 -48 c9 -19 8 -29 -6 -50 -18 -27 -28 -30 -56 -15 -32 17 -41
44 -24 68 22 31 71 30 86 -3z m512 -7 c20 -29 20 -34 -4 -58 -27 -27 -56 -25
-76 5 -15 23 -15 27 0 50 21 32 59 33 80 3z m-222 -45 c24 -22 23 -39 -7 -69
-20 -20 -29 -23 -45 -14 -34 18 -44 48 -25 76 18 28 51 31 77 7z m-207 -78 c0
-23 -34 -33 -45 -14 -13 20 1 40 24 37 13 -2 21 -10 21 -23z m473 13 c13 -13
-2 -48 -21 -48 -23 0 -37 22 -26 42 11 21 30 23 47 6z m-624 -14 c20 -8 20
-28 0 -44 -12 -11 -18 -10 -31 3 -13 13 -14 19 -3 31 14 18 13 18 34 10z m517
-44 c38 -21 18 -80 -27 -80 -35 0 -48 61 -16 79 21 13 20 13 43 1z m-186 -60
c0 -18 -6 -26 -23 -28 -27 -4 -40 22 -22 44 19 22 45 13 45 -16z m-191 -2 c23
-37 -36 -77 -63 -44 -8 10 -11 26 -7 42 5 20 12 25 33 22 14 -2 31 -11 37 -20z
m359 -72 c8 -19 -16 -38 -37 -30 -16 6 -21 25 -9 37 12 12 41 7 46 -7z m-303
-51 c0 -18 -5 -25 -19 -25 -11 0 -23 5 -26 10 -11 18 3 40 25 40 15 0 20 -7
20 -25z m210 10 c17 -20 5 -62 -20 -70 -44 -14 -80 41 -48 73 17 17 53 15 68
-3z"/>
<path d="M553 3811 c-45 -25 -79 -49 -75 -52 6 -5 132 -39 146 -39 5 0 20 130
15 134 -2 2 -41 -17 -86 -43z"/>
<path d="M300 3599 c0 -124 -5 -164 -32 -289 -30 -139 -31 -156 -36 -434 l-4
-290 33 28 c28 24 38 27 68 20 89 -20 251 1 291 38 32 30 18 33 -32 7 -33 -18
-60 -23 -118 -23 -90 -1 -128 16 -167 76 -36 53 -38 132 -5 199 28 57 27 59
-3 59 -15 0 -31 9 -40 24 -15 22 -13 36 25 201 22 97 43 181 46 187 3 5 17 13
30 19 21 7 23 12 14 28 -28 53 2 86 108 122 l67 23 -68 21 c-71 21 -101 47
-93 78 3 13 -2 17 -22 17 -14 0 -34 7 -44 17 -17 16 -18 11 -18 -128z"/>
<path d="M947 3634 c-32 -20 -56 -38 -55 -40 6 -6 108 24 123 36 13 11 10 40
-4 40 -3 0 -32 -17 -64 -36z"/>
<path d="M823 3528 c-15 -34 -30 -42 -69 -40 -35 3 -44 -5 -67 -67 -18 -48
-14 -62 26 -99 29 -28 67 -22 67 8 0 28 44 54 77 45 40 -10 63 -34 63 -67 0
-16 5 -28 13 -28 19 0 62 -48 87 -98 23 -44 23 -56 4 -174 -6 -34 -4 -39 20
-48 14 -5 26 -14 26 -20 0 -8 45 -5 57 4 9 7 -38 102 -51 104 -11 2 -16 14
-16 35 0 42 -15 93 -36 126 -10 14 -19 35 -20 46 -1 11 -8 40 -16 64 -13 43
-12 44 18 70 30 25 55 101 34 101 -5 0 -43 -7 -85 -17 -71 -15 -76 -15 -94 2
-11 9 -21 31 -23 49 l-4 31 -11 -27z"/>
<path d="M440 3367 c0 -17 -4 -47 -9 -65 -9 -30 -8 -32 14 -32 18 0 26 8 35
35 10 31 9 39 -10 65 -12 16 -23 30 -26 30 -2 0 -4 -15 -4 -33z"/>
<path d="M540 3256 c0 -3 14 -12 30 -21 17 -9 30 -13 30 -11 0 3 -13 12 -30
21 -16 9 -30 13 -30 11z"/>
<path d="M725 3245 c-16 -9 -40 -29 -53 -46 -24 -30 -74 -40 -88 -18 -3 6 -24
19 -46 29 -69 31 -149 -1 -169 -68 -10 -34 -8 -43 15 -84 14 -26 26 -52 26
-58 0 -6 -14 -29 -32 -51 -26 -32 -33 -51 -36 -99 -4 -60 13 -110 38 -110 6 0
4 10 -5 23 -32 49 -8 128 78 259 9 14 17 36 17 47 0 35 42 70 76 64 45 -9 54
-21 54 -77 l0 -52 35 4 c27 3 37 10 41 28 4 13 2 30 -4 37 -33 39 -1 121 60
153 46 24 153 12 153 -16 0 -10 14 -17 41 -21 55 -7 49 12 -14 42 -61 29 -147
35 -187 14z m-185 -55 c8 -5 11 -10 5 -10 -5 0 -17 5 -25 10 -8 5 -10 10 -5
10 6 0 17 -5 25 -10z"/>
<path d="M2777 3107 c-34 -78 -35 -104 -2 -117 37 -14 52 -53 32 -83 l-16 -24
56 13 c68 16 90 7 98 -40 8 -40 -8 -76 -34 -76 -35 0 -29 -13 24 -56 29 -24
56 -53 60 -64 12 -38 -37 -100 -79 -100 -9 0 -48 28 -87 61 -77 67 -88 67 -89
-1 0 -39 -7 -52 -33 -67 -17 -9 -16 -11 10 -22 35 -15 129 -151 104 -151 -5 0
-12 -9 -16 -19 -18 -56 -233 -194 -322 -206 -73 -10 -115 -43 -129 -103 -11
-53 -35 -66 -55 -30 -8 13 -14 65 -15 121 -2 64 -7 105 -16 115 -7 10 -24 39
-37 65 -34 68 -136 160 -208 188 -68 26 -202 32 -270 11 l-43 -13 0 -52 c0
-51 1 -53 28 -52 23 0 27 -4 27 -30 0 -27 -3 -30 -32 -30 -30 0 -32 -2 -43
-56 -16 -73 -103 -249 -124 -249 -6 0 -26 -13 -45 -29 l-34 -28 42 -61 c22
-33 41 -63 41 -65 0 -3 -25 -15 -55 -28 -30 -12 -55 -26 -55 -29 0 -4 31 -10
69 -12 51 -4 78 -11 102 -29 40 -28 68 -59 69 -76 0 -7 5 -13 10 -13 6 0 10
-7 10 -15 0 -8 -4 -15 -10 -15 -5 0 -6 -7 -3 -17 4 -9 2 -14 -4 -10 -5 3 -15
23 -22 44 -11 33 -20 41 -69 61 -91 38 -176 31 -223 -17 -54 -57 -83 -61 -127
-20 -13 12 -42 22 -72 26 -47 5 -51 4 -85 -30 -31 -31 -35 -41 -35 -84 0 -37
5 -55 20 -68 26 -24 25 -36 -8 -87 -44 -66 -56 -115 -40 -160 17 -47 80 -98
122 -97 29 0 29 1 -12 14 -54 17 -71 31 -89 74 -20 47 -8 103 33 157 39 51 41
62 15 96 -30 37 -36 74 -17 103 18 28 75 55 114 55 25 0 25 0 6 -21 -10 -12
-39 -35 -63 -51 -32 -23 -40 -33 -30 -39 8 -5 26 -6 41 -3 34 7 87 -22 94 -53
4 -13 -3 -66 -15 -120 -11 -53 -19 -98 -17 -101 3 -2 67 30 143 72 76 42 149
76 161 76 12 0 29 -11 39 -26 15 -24 15 -28 0 -52 -21 -37 -175 -124 -204
-117 -13 3 -40 -5 -66 -18 -24 -13 -55 -27 -68 -32 -24 -7 -24 -8 -2 -12 14
-3 20 -9 16 -19 -3 -7 -9 -11 -14 -8 -5 3 -15 2 -22 -3 -32 -20 -121 -6 -159
25 -9 7 -19 25 -23 40 -3 14 -16 46 -27 70 -11 25 -17 53 -15 63 3 11 1 17 -4
13 -5 -3 -9 -12 -9 -20 0 -25 -15 -14 -33 25 -65 142 -252 237 -413 212 -34
-5 -84 -19 -109 -30 -26 -12 -52 -18 -57 -15 -6 4 -8 37 -4 88 l6 81 -75 75
c-41 41 -84 83 -96 93 -15 14 -19 26 -14 45 8 35 40 62 65 55 14 -4 22 1 29
18 5 13 25 40 45 58 23 23 36 44 36 61 0 15 11 36 25 50 33 31 32 43 -4 35
-23 -5 -37 2 -84 40 -63 51 -77 55 -77 21 0 -13 -11 -83 -25 -157 -15 -81 -28
-192 -32 -281 l-6 -148 30 0 c36 0 51 -15 80 -84 18 -42 27 -52 53 -57 45 -10
46 -15 8 -40 -19 -12 -51 -47 -71 -78 l-36 -56 -16 37 c-19 48 -20 46 13 60
l27 12 -39 4 c-22 2 -42 -2 -46 -8 -4 -6 -10 -53 -13 -103 -3 -51 -21 -172
-41 -269 -20 -98 -36 -189 -36 -204 l0 -26 125 8 124 7 51 -33 c29 -19 50 -39
50 -50 0 -38 -26 -44 -200 -48 l-167 -4 -7 -52 c-10 -87 -9 -93 25 -105 47
-16 73 -13 87 9 15 24 58 26 89 5 18 -13 22 -12 39 6 14 15 26 19 49 15 30 -6
31 -5 27 24 -6 40 21 70 63 70 17 0 36 -5 43 -12 14 -14 16 -4 3 20 -12 25
-22 84 -12 78 4 -3 46 -12 92 -20 72 -12 86 -12 103 0 11 8 30 14 43 14 20 0
21 -3 13 -32 l-10 -31 28 25 c31 30 101 78 113 78 4 0 1 -12 -7 -27 -19 -38
-18 -63 4 -63 19 -1 -93 -112 -252 -250 -54 -47 -115 -99 -135 -117 l-36 -32
-12 24 c-7 12 -27 28 -44 34 -27 9 -34 8 -45 -7 -25 -32 -26 -52 -4 -83 22
-29 22 -31 4 -45 -39 -31 -79 -43 -116 -35 -52 12 -58 18 -58 57 0 27 -12 52
-48 100 l-47 64 -3 -216 c-1 -120 0 -219 2 -221 13 -13 204 98 236 137 3 3 39
35 80 70 41 35 82 71 90 80 22 24 272 254 355 326 77 67 177 141 300 224 122
81 161 116 426 376 135 133 262 252 281 265 52 34 242 177 298 224 27 22 91
76 143 120 117 99 192 159 372 300 226 177 310 250 483 420 l162 160 -41 65
c-63 99 -161 211 -236 272 -79 63 -158 118 -170 118 -4 0 -20 -29 -36 -63z
m-919 -665 c3 -16 -2 -22 -16 -22 -28 0 -45 23 -29 39 17 17 42 9 45 -17z
m130 -33 c4 -31 -20 -53 -47 -44 -47 15 -31 79 18 73 20 -2 27 -9 29 -29z
m147 -59 c9 -15 -4 -50 -19 -50 -20 0 -39 27 -32 45 6 17 42 20 51 5z m-138
-66 c8 -21 -19 -46 -40 -38 -17 6 -23 35 -10 47 12 13 44 7 50 -9z m-197 -24
c11 -11 20 -24 20 -29 0 -16 -30 -41 -49 -41 -38 0 -54 45 -25 74 20 21 30 20
54 -4z m351 -40 c26 -15 26 -66 -2 -80 -32 -18 -62 -8 -73 22 -8 22 -6 32 9
48 20 22 37 25 66 10z m-213 -52 c27 -27 2 -98 -34 -98 -17 0 -54 40 -54 59 0
39 61 66 88 39z m-208 -73 c15 -18 5 -35 -20 -35 -22 0 -34 15 -26 35 7 19 30
19 46 0z m475 -15 c0 -16 -6 -26 -19 -28 -25 -5 -39 12 -31 38 10 31 50 24 50
-10z m-91 -62 c15 -25 -3 -52 -38 -56 -20 -3 -28 2 -36 24 -8 19 -7 30 1 41
16 18 59 13 73 -9z m-204 -23 c17 -20 5 -45 -20 -45 -11 0 -23 7 -26 15 -6 15
11 45 26 45 4 0 13 -7 20 -15z m-196 -11 c20 -20 20 -29 0 -49 -23 -23 -58
-15 -62 13 -7 50 28 70 62 36z m364 -87 c4 -20 -25 -34 -40 -19 -15 15 -1 44
19 40 10 -2 19 -11 21 -21z m-300 -40 c4 -20 -25 -34 -40 -19 -15 15 -1 44 19
40 10 -2 19 -11 21 -21z m212 2 c9 -16 8 -26 -5 -45 -18 -28 -32 -30 -63 -8
-26 18 -28 31 -5 56 22 24 60 23 73 -3z m-301 -86 c21 -12 31 -26 31 -42 0
-23 0 -23 -35 8 -20 17 -40 31 -45 31 -6 0 -10 5 -10 10 0 15 25 12 59 -7z
m193 -54 c49 -13 81 -39 73 -62 -4 -9 -11 -17 -17 -17 -5 0 -27 -14 -49 -32
-21 -17 -50 -32 -63 -34 -46 -5 -105 91 -86 141 9 25 13 26 57 20 27 -4 64
-11 85 -16z m-316 -14 c4 -8 -1 -26 -10 -40 -13 -20 -25 -25 -56 -25 -29 0
-40 -4 -40 -15 0 -9 9 -15 23 -15 12 0 46 -3 76 -7 l54 -6 -7 51 c-5 42 -4 52
8 52 23 0 64 -56 71 -99 7 -44 -22 -127 -49 -137 -8 -3 -72 -1 -143 5 -100 9
-131 15 -140 28 -15 20 -17 79 -3 88 6 3 10 16 10 28 1 26 39 73 78 93 37 19
121 19 128 -1z m141 -127 c-3 -8 -6 -5 -6 6 -1 11 2 17 5 13 3 -3 4 -12 1 -19z
m-1142 -87 c0 -30 -15 -36 -40 -17 -17 12 -17 16 -6 30 20 24 46 16 46 -13z
m125 -16 c17 -21 -2 -65 -28 -65 -36 0 -55 43 -30 68 17 17 43 15 58 -3z
m-220 -30 c26 -32 -13 -81 -47 -59 -35 22 -23 74 17 74 10 0 23 -7 30 -15z
m370 -50 c10 -12 10 -18 0 -30 -17 -20 -37 -19 -49 3 -18 34 24 57 49 27z
m-141 -63 c18 -34 -24 -57 -49 -27 -10 12 -10 18 0 30 17 20 37 19 49 -3z
m-189 -26 c6 -8 10 -25 8 -38 -4 -32 -62 -39 -78 -9 -23 44 38 85 70 47z
m-169 -26 c22 -12 26 -59 7 -78 -17 -17 -48 -15 -70 5 -22 20 -23 41 -1 65 18
20 36 23 64 8z m519 -18 c29 -24 21 -64 -15 -80 -32 -15 -30 -15 -49 4 -23 22
-20 60 6 78 28 20 31 20 58 -2z m-222 -48 c26 -18 28 -50 5 -76 -20 -22 -41
-23 -65 -1 -25 22 -23 59 4 77 12 9 25 16 28 16 3 0 16 -7 28 -16z m432 -75
c30 -19 70 -41 89 -49 27 -11 31 -15 19 -24 -8 -6 -18 -24 -22 -40 -11 -45
-33 -60 -82 -58 -42 1 -65 -10 -44 -23 20 -12 9 -40 -25 -64 -27 -18 -42 -22
-70 -17 -41 8 -41 9 -16 50 21 34 56 155 67 228 4 32 10 45 18 40 6 -4 36 -23
66 -43z m-642 12 c19 -11 11 -45 -11 -49 -19 -4 -32 20 -23 43 6 17 15 19 34
6z m482 -6 c18 -21 5 -45 -25 -45 -27 0 -35 26 -13 48 16 16 23 15 38 -3z
m-610 -35 c0 -24 -26 -38 -42 -22 -16 16 -2 42 22 42 13 0 20 -7 20 -20z m520
-39 c22 -42 -27 -86 -61 -55 -22 20 -25 44 -7 62 18 18 56 14 68 -7z m-619
-28 c7 -21 19 -48 27 -61 20 -30 13 -35 -38 -23 -61 14 -78 51 -44 99 22 32
41 27 55 -15z m429 -16 c0 -14 -20 -37 -31 -37 -4 0 -15 7 -24 16 -15 15 -15
18 1 35 13 14 21 16 35 8 11 -5 19 -15 19 -22z m-216 10 c26 -19 18 -61 -13
-65 -15 -3 -30 3 -38 14 -17 23 -16 29 3 48 19 19 25 20 48 3z m371 -92 c0
-13 -8 -21 -22 -23 -17 -3 -23 2 -23 16 0 10 3 22 7 26 13 13 38 1 38 -19z
m-305 -31 c11 -12 11 -18 -2 -31 -19 -18 -38 -10 -38 16 0 33 20 40 40 15z
m208 4 c17 -17 15 -53 -3 -68 -20 -17 -62 -5 -70 21 -13 40 44 76 73 47z"/>
<path d="M312 3110 c0 -14 2 -19 5 -12 2 6 2 18 0 25 -3 6 -5 1 -5 -13z"/>
<path d="M330 3050 c6 -11 13 -20 16 -20 2 0 0 9 -6 20 -6 11 -13 20 -16 20
-2 0 0 -9 6 -20z"/>
<path d="M796 2956 c-17 -42 -31 -50 -75 -47 -28 1 -32 -1 -22 -12 7 -9 44
-17 104 -21 82 -6 98 -4 141 14 26 12 58 19 69 17 21 -5 21 -5 -2 11 -13 9
-34 27 -47 39 -18 17 -25 19 -34 8 -20 -24 -49 -24 -85 1 l-35 23 -14 -33z"/>
<path d="M2130 2898 c-24 -40 -25 -52 -4 -72 19 -19 26 -20 42 -4 20 20 14 38
-13 38 -29 0 -32 16 -9 48 8 12 13 22 9 22 -3 0 -14 -15 -25 -32z"/>
<path d="M1095 2883 c54 -149 -69 -282 -265 -285 -70 -2 -93 7 -149 57 -34 30
-34 30 -15 3 10 -15 34 -35 52 -45 21 -12 32 -25 32 -40 0 -25 10 -29 27 -12
6 6 36 13 67 15 123 9 224 65 262 148 13 28 24 61 24 72 0 12 7 25 16 28 24 9
62 7 69 -3 3 -5 24 -24 46 -42 40 -31 41 -32 33 -8 -4 13 -8 35 -9 48 -1 13
-9 28 -18 33 -9 5 -17 16 -17 23 0 12 -15 15 -67 15 -46 0 -72 5 -84 16 -16
15 -16 13 -4 -23z"/>
<path d="M1026 2862 c-2 -4 4 -19 15 -32 14 -19 19 -21 19 -8 0 36 -21 61 -34
40z"/>
<path d="M2225 2817 c-19 -47 -40 -61 -92 -63 -24 -1 -47 -4 -50 -7 -3 -4 6
-20 21 -37 14 -17 26 -37 26 -44 0 -23 -41 -66 -76 -81 -25 -10 -32 -18 -27
-30 5 -14 15 -16 62 -11 117 14 109 6 109 98 1 65 5 85 20 102 26 29 42 61 42
85 0 32 -19 25 -35 -12z"/>
<path d="M1426 2815 c4 -8 15 -15 26 -15 17 0 18 3 8 15 -7 8 -19 15 -26 15
-8 0 -11 -6 -8 -15z"/>
<path d="M1587 2776 c51 -57 87 -123 104 -190 6 -25 13 -46 14 -46 9 0 125 82
125 88 0 4 -18 34 -40 67 -22 33 -40 65 -40 71 0 5 -13 20 -28 31 -21 15 -47
22 -104 24 l-76 4 45 -49z"/>
<path d="M1511 2750 c7 -20 18 -30 31 -30 20 0 18 10 -10 43 -23 26 -32 20
-21 -13z"/>
<path d="M645 2750 c11 -4 34 -22 50 -40 17 -17 39 -37 50 -43 11 -5 -5 13
-35 41 -30 28 -62 51 -70 51 -10 0 -8 -3 5 -9z"/>
<path d="M2550 2695 c0 -10 10 -15 26 -15 22 0 25 2 14 15 -7 8 -19 15 -26 15
-8 0 -14 -7 -14 -15z"/>
<path d="M770 2656 c0 -2 9 -6 20 -9 11 -3 18 -1 14 4 -5 9 -34 13 -34 5z"/>
<path d="M1601 2581 c-21 -29 -22 -34 -9 -70 12 -35 15 -38 37 -30 22 9 23 13
17 55 -10 73 -19 82 -45 45z"/>
<path d="M2586 2562 c-10 -9 5 -22 24 -22 29 0 33 17 5 22 -13 3 -27 3 -29 0z"/>
<path d="M1086 2541 c-23 -26 -20 -60 9 -83 14 -11 25 -27 25 -36 0 -21 22
-82 30 -82 4 0 7 14 7 31 0 19 7 37 18 45 10 7 19 28 21 46 2 30 -2 36 -46 65
-46 30 -49 31 -64 14z"/>
<path d="M230 2487 c0 -31 6 -39 71 -86 39 -29 73 -50 76 -48 5 5 -102 132
-130 156 -15 12 -17 10 -17 -22z"/>
<path d="M1601 2434 c-36 -31 -47 -36 -76 -31 -30 5 -37 2 -57 -26 -18 -25
-24 -50 -28 -112 -5 -79 -5 -80 -37 -94 -40 -18 -46 -51 -8 -51 37 0 75 -21
75 -42 0 -26 12 -22 46 15 54 58 57 63 43 86 -11 17 -10 23 5 40 11 12 27 21
36 21 10 0 21 14 29 38 12 37 28 192 19 192 -2 0 -23 -16 -47 -36z"/>
<path d="M2630 2378 c-1 -56 -35 -69 -155 -61 -78 5 -97 4 -93 -7 5 -17 94
-22 236 -13 l114 8 -37 48 c-39 51 -65 61 -65 25z"/>
<path d="M1127 2298 c-17 -18 -16 -58 3 -58 7 0 25 70 18 74 -2 2 -11 -6 -21
-16z"/>
<path d="M800 2050 c0 -5 5 -10 11 -10 5 0 7 5 4 10 -3 6 -8 10 -11 10 -2 0
-4 -4 -4 -10z"/>
<path d="M1314 2042 c-12 -8 -25 -62 -15 -62 3 0 23 5 44 11 l37 10 -17 24
c-19 25 -31 30 -49 17z"/>
<path d="M1255 1913 c-46 -4 -75 -21 -75 -45 0 -16 66 -8 112 14 48 24 62 39
31 36 -10 -1 -40 -3 -68 -5z"/>
<path d="M1026 1894 c-5 -13 -2 -15 16 -10 13 3 31 6 41 6 9 0 17 5 17 10 0
17 -67 12 -74 -6z"/>
<path d="M845 1848 c-14 -45 -35 -55 -87 -41 -24 6 -44 10 -46 8 -1 -1 15 -20
37 -40 22 -21 43 -51 46 -66 3 -15 22 -44 41 -64 25 -25 34 -41 29 -53 -17
-39 -14 -50 30 -102 25 -30 49 -56 54 -58 5 -2 23 15 41 38 18 22 40 40 52 40
19 0 19 0 -1 29 -12 16 -21 36 -21 44 0 8 -16 24 -35 36 -28 16 -35 27 -35 51
0 22 -5 30 -18 30 -11 0 -27 9 -36 19 -15 17 -17 30 -11 82 6 47 4 63 -6 70
-21 13 -24 11 -34 -23z"/>
<path d="M1229 1739 c13 -5 37 -19 55 -31 23 -17 27 -18 17 -4 -17 20 -64 46
-83 45 -7 0 -2 -5 11 -10z"/>
<path d="M1079 1723 c-13 -16 -12 -17 4 -4 9 7 17 15 17 17 0 8 -8 3 -21 -13z"/>
<path d="M609 630 c-30 -31 -80 -69 -111 -85 -31 -16 -56 -31 -55 -32 2 -1 22
4 45 12 53 19 111 55 137 87 23 29 48 69 43 72 -2 1 -28 -23 -59 -54z"/>
<path d="M30 504 c0 -16 8 -19 45 -19 50 0 60 10 18 17 -16 3 -36 9 -45 13
-14 5 -18 2 -18 -11z"/>
<path d="M182 469 c2 -7 10 -15 17 -17 8 -3 12 1 9 9 -2 7 -10 15 -17 17 -8 3
-12 -1 -9 -9z"/>
</g>
</svg>
